<svg width="132" height="35" viewBox="0 0 132 35" fill="none" xmlns="http://www.w3.org/2000/svg">
<g clip-path="url(#clip0_217_165900)">
<path d="M37.9542 22.5875C37.9542 23.65 37.5737 24.5625 36.8249 25.3375C36.0761 26.1 35.18 26.4875 34.1243 26.4875V17.2C34.1243 14.6375 35.0327 12.45 36.8372 10.65C38.6539 8.85 40.8144 7.95 43.3309 7.95H48.6953C48.6953 8.975 48.3393 9.8375 47.6396 10.55C46.9399 11.2625 46.0806 11.625 45.0863 11.625H43.3309C41.8333 11.625 40.5566 12.175 39.5132 13.2625C38.4698 14.35 37.942 15.6625 37.942 17.1875V22.5875H37.9542Z" fill="#DFDFE3"/>
<path d="M64.0521 11.85C64.0521 10.7875 64.4326 9.875 65.1814 9.1C65.9302 8.3375 66.8264 7.95 67.8821 7.95V17.1875C67.8821 19.75 66.9737 21.9375 65.1692 23.75C63.3647 25.5625 61.2042 26.475 58.6877 26.475C56.1589 26.475 53.9861 25.5625 52.1816 23.75C50.3771 21.9375 49.4688 19.75 49.4688 17.1875V7.95C50.5122 7.95 51.4083 8.3375 52.1694 9.1C52.9182 9.8625 53.2987 10.775 53.2987 11.85V17.2C53.2987 18.725 53.8266 20.05 54.87 21.15C55.9134 22.25 57.1901 22.8125 58.6877 22.8125C60.173 22.8125 61.4374 22.2625 62.4808 21.15C63.5242 20.0375 64.0521 18.725 64.0521 17.2125V11.85Z" fill="#DFDFE3"/>
<path d="M73.4674 7.2375V7.95H78.8563C81.3851 7.95 83.5578 8.85 85.3746 10.65C87.1914 12.45 88.0875 14.625 88.0875 17.2C88.0875 19.7625 87.1791 21.95 85.3623 23.7625C83.5456 25.575 81.3728 26.4875 78.8563 26.4875C76.3398 26.4875 74.1793 25.575 72.3626 23.7625C70.5458 21.95 69.6497 19.7625 69.6497 17.2V3.3375C70.6931 3.3375 71.5892 3.725 72.3503 4.4875C73.0991 5.25 73.4674 6.1625 73.4674 7.2375ZM84.233 17.2C84.233 15.675 83.7174 14.3625 82.674 13.275C81.6306 12.1875 80.3539 11.6375 78.8563 11.6375H73.4796V17.2C73.4796 18.725 73.9952 20.05 75.0386 21.15C76.082 22.25 77.3587 22.8125 78.8563 22.8125C80.3662 22.8125 81.6306 22.2625 82.674 21.15C83.7052 20.0375 84.233 18.725 84.233 17.2Z" fill="#DFDFE3"/>
<path d="M93.3783 26.4875C92.3349 26.4875 91.4388 26.1 90.6777 25.3375C89.9289 24.575 89.5483 23.6625 89.5483 22.5875V7.95C90.5918 7.95 91.4879 8.3375 92.249 9.1C92.9978 9.8625 93.3783 10.775 93.3783 11.85V26.4875Z" fill="#DFDFE3"/>
<path d="M119.402 17.2375V26.475H110.171C107.655 26.475 105.494 25.575 103.677 23.775C101.861 21.975 100.965 19.8 100.965 17.225C100.965 14.6625 101.873 12.475 103.677 10.6625C105.494 8.85 107.655 7.9375 110.171 7.9375C112.688 7.9375 114.861 8.85 116.677 10.6625C118.494 12.4875 119.402 14.675 119.402 17.2375ZM115.536 22.8V17.2375C115.536 15.7125 115.02 14.3875 113.977 13.2875C112.933 12.1875 111.657 11.625 110.159 11.625C108.649 11.625 107.385 12.175 106.341 13.2875C105.298 14.3875 104.782 15.7125 104.782 17.2375C104.782 18.7625 105.298 20.075 106.341 21.1625C107.385 22.25 108.661 22.8 110.159 22.8H115.536Z" fill="#DFDFE3"/>
<path d="M125 26.4875C123.957 26.4875 123.061 26.1 122.3 25.3375C121.551 24.575 121.17 23.6625 121.17 22.5875V7.95C122.214 7.95 123.11 8.3375 123.871 9.1C124.62 9.8625 125 10.775 125 11.85V26.4875Z" fill="#DFDFE3"/>
<path d="M15.2566 14.8375C16.1244 14.8375 16.8278 14.1212 16.8278 13.2375C16.8278 12.3538 16.1244 11.6375 15.2566 11.6375C14.3888 11.6375 13.6853 12.3538 13.6853 13.2375C13.6853 14.1212 14.3888 14.8375 15.2566 14.8375Z" fill="#E7194E"/>
<path d="M16.2509 9.3125C15.9195 8.725 15.1952 8.525 14.6183 8.8625C14.0413 9.2 13.8449 9.9375 14.1764 10.525C14.5078 11.1125 15.232 11.3125 15.809 10.975C16.3859 10.6375 16.5824 9.9 16.2509 9.3125Z" fill="#E7194E"/>
<path d="M16.791 7.55C17.1838 7.325 17.3189 6.8125 17.0856 6.4125C16.8647 6.0125 16.3614 5.875 15.9686 6.1C15.5757 6.325 15.4407 6.8375 15.6617 7.2375C15.8949 7.65 16.3982 7.7875 16.791 7.55Z" fill="#E7194E"/>
<path d="M17.8713 5.1625C18.1659 4.9875 18.2764 4.6 18.1045 4.3C17.9327 4 17.5521 3.9 17.2575 4.0625C16.9629 4.2375 16.8647 4.625 17.0243 4.925C17.1961 5.2375 17.5767 5.3375 17.8713 5.1625Z" fill="#E7194E"/>
<path d="M18.6446 3.525C18.7797 3.45 18.8165 3.275 18.7428 3.1375C18.6692 3 18.4973 2.9625 18.3623 3.0375C18.2273 3.1125 18.1904 3.2875 18.2641 3.425C18.3378 3.55 18.5096 3.6 18.6446 3.525Z" fill="#E7194E"/>
<path d="M11.3652 12.75C11.8931 13.15 12.6419 13.025 13.0347 12.4875C13.4275 11.95 13.3048 11.1875 12.7769 10.7875C12.2491 10.3875 11.5003 10.5125 11.1074 11.05C10.7146 11.6 10.8374 12.3625 11.3652 12.75Z" fill="#E7194E"/>
<path d="M12.5929 9.1C12.863 8.725 12.777 8.2 12.4088 7.925C12.0405 7.65 11.5249 7.7375 11.2549 8.1125C10.9848 8.4875 11.0707 9.0125 11.439 9.2875C11.8073 9.55 12.3228 9.475 12.5929 9.1Z" fill="#E7194E"/>
<path d="M12.0527 6.65C12.2491 6.3625 12.2 5.975 11.9177 5.7625C11.6354 5.5625 11.2548 5.6125 11.0461 5.9C10.8497 6.1875 10.8988 6.575 11.1812 6.7875C11.4635 7 11.8563 6.9375 12.0527 6.65Z" fill="#E7194E"/>
<path d="M12.1019 4.75C12.1879 4.625 12.1633 4.45 12.0405 4.3625C11.9178 4.275 11.7459 4.3 11.66 4.425C11.5741 4.55 11.5986 4.725 11.7214 4.8125C11.8319 4.9 12.0037 4.875 12.1019 4.75Z" fill="#E7194E"/>
<path d="M13.4153 7.95C13.7222 8.2875 14.2377 8.3125 14.5815 8C14.9129 7.6875 14.9374 7.1625 14.6306 6.8125C14.3237 6.475 13.8081 6.45 13.4644 6.7625C13.1207 7.075 13.1084 7.6 13.4153 7.95Z" fill="#E7194E"/>
<path d="M14.9253 5.4875C15.183 5.25 15.1953 4.85 14.9621 4.5875C14.7289 4.325 14.336 4.3125 14.0783 4.55C13.8205 4.7875 13.8082 5.1875 14.0414 5.45C14.2869 5.7 14.6798 5.725 14.9253 5.4875Z" fill="#E7194E"/>
<path d="M15.2935 3.8C15.404 3.7 15.4163 3.5125 15.3058 3.4C15.2076 3.2875 15.0235 3.275 14.913 3.3875C14.8025 3.4875 14.7902 3.675 14.9007 3.7875C15.0112 3.9 15.183 3.9125 15.2935 3.8Z" fill="#E7194E"/>
<path d="M10.727 10.225C10.8621 9.7875 10.6166 9.3125 10.1869 9.175C9.75727 9.0375 9.2908 9.2875 9.15577 9.725C9.02074 10.1625 9.26625 10.6375 9.69589 10.775C10.1255 10.9125 10.592 10.6625 10.727 10.225Z" fill="#E7194E"/>
<path d="M9.80628 8.1375C9.90448 7.8 9.73263 7.45 9.40119 7.35C9.06975 7.25 8.72603 7.425 8.62783 7.7625C8.52962 8.1 8.70148 8.45 9.03292 8.55C9.35209 8.6625 9.6958 8.475 9.80628 8.1375Z" fill="#E7194E"/>
<path d="M9.29074 6.5C9.33984 6.35 9.25392 6.2 9.10661 6.15C8.9593 6.1 8.812 6.1875 8.76289 6.3375C8.71379 6.4875 8.79972 6.6375 8.94703 6.6875C9.09433 6.725 9.25392 6.65 9.29074 6.5Z" fill="#E7194E"/>
<path d="M13.3171 18.2625C14.1849 18.2625 14.8884 17.5462 14.8884 16.6625C14.8884 15.7788 14.1849 15.0625 13.3171 15.0625C12.4493 15.0625 11.7458 15.7788 11.7458 16.6625C11.7458 17.5462 12.4493 18.2625 13.3171 18.2625Z" fill="#E7194E"/>
<path d="M10.4815 13.825C9.81862 13.825 9.29077 14.375 9.29077 15.0375C9.29077 15.7125 9.8309 16.25 10.4815 16.25C11.1321 16.25 11.6722 15.7 11.6722 15.0375C11.6722 14.375 11.1444 13.825 10.4815 13.825Z" fill="#E7194E"/>
<path d="M9.25381 12.475C9.25381 12.0125 8.88554 11.6375 8.43135 11.6375C7.97715 11.6375 7.60889 12.0125 7.60889 12.475C7.60889 12.9375 7.97715 13.3125 8.43135 13.3125C8.88554 13.3125 9.25381 12.9375 9.25381 12.475Z" fill="#E7194E"/>
<path d="M7.76871 10.325C7.76871 9.975 7.48637 9.6875 7.14265 9.6875C6.79894 9.6875 6.5166 9.975 6.5166 10.325C6.5166 10.675 6.79894 10.9625 7.14265 10.9625C7.48637 10.9625 7.76871 10.675 7.76871 10.325Z" fill="#E7194E"/>
<path d="M6.74984 8.825C6.74984 8.675 6.62709 8.55 6.47978 8.55C6.33247 8.55 6.20972 8.675 6.20972 8.825C6.20972 8.975 6.33247 9.1 6.47978 9.1C6.62709 9.1 6.74984 8.975 6.74984 8.825Z" fill="#E7194E"/>
<path d="M10.9603 19.85C11.5618 19.575 11.8318 18.8625 11.574 18.25C11.304 17.6375 10.6043 17.3625 10.0028 17.625C9.40128 17.8875 9.13121 18.6125 9.389 19.225C9.65906 19.85 10.3588 20.125 10.9603 19.85Z" fill="#E7194E"/>
<path d="M8.46835 16.95C8.28422 16.525 7.80547 16.3375 7.3881 16.525C6.97073 16.7125 6.7866 17.2 6.97073 17.625C7.15487 18.05 7.63361 18.2375 8.05098 18.05C8.46835 17.8625 8.65248 17.3625 8.46835 16.95Z" fill="#E7194E"/>
<path d="M6.12362 16.1875C5.98859 15.8625 5.62033 15.725 5.30116 15.8625C4.982 16 4.84697 16.375 4.982 16.7C5.11703 17.025 5.4853 17.1625 5.80446 17.025C6.11135 16.8875 6.25865 16.5125 6.12362 16.1875Z" fill="#E7194E"/>
<path d="M4.52788 15.2125C4.4665 15.075 4.30692 15.0125 4.15961 15.075C4.02458 15.1375 3.9632 15.3 4.02458 15.45C4.08596 15.5875 4.24554 15.65 4.39285 15.5875C4.52788 15.5125 4.58926 15.35 4.52788 15.2125Z" fill="#E7194E"/>
<path d="M7.90365 15.65C8.34557 15.55 8.62791 15.1 8.52971 14.65C8.4315 14.2 7.98958 13.9125 7.54766 14.0125C7.10574 14.1125 6.82341 14.5625 6.92161 15.0125C7.01981 15.4625 7.46173 15.75 7.90365 15.65Z" fill="#E7194E"/>
<path d="M6.56569 13.075C6.49204 12.7375 6.1606 12.525 5.82916 12.6C5.49772 12.675 5.28903 13.0125 5.36269 13.35C5.43634 13.6875 5.76778 13.9 6.09922 13.825C6.43066 13.75 6.63934 13.4125 6.56569 13.075Z" fill="#E7194E"/>
<path d="M5.31351 11.9125C5.27669 11.7625 5.12938 11.6625 4.98208 11.7C4.83477 11.7375 4.73656 11.8875 4.77339 12.0375C4.81022 12.1875 4.95752 12.2875 5.10483 12.25C5.25214 12.2125 5.35034 12.0625 5.31351 11.9125Z" fill="#E7194E"/>
<path d="M8.49291 19.1625C8.18602 18.825 7.67045 18.8 7.32673 19.1125C6.99529 19.425 6.97074 19.95 7.27763 20.3C7.58452 20.6375 8.10009 20.6625 8.44381 20.35C8.77525 20.025 8.7998 19.5 8.49291 19.1625Z" fill="#E7194E"/>
<path d="M6.25872 18.925C6.02549 18.6625 5.63267 18.65 5.37488 18.8875C5.1171 19.125 5.10482 19.525 5.33806 19.7875C5.57129 20.05 5.96411 20.0625 6.22189 19.825C6.47968 19.5875 6.49196 19.1875 6.25872 18.925Z" fill="#E7194E"/>
<path d="M4.61366 18.55C4.51546 18.4375 4.33132 18.425 4.22084 18.5375C4.11036 18.6375 4.09809 18.825 4.20857 18.9375C4.30677 19.05 4.49091 19.0625 4.60139 18.95C4.69959 18.8375 4.71187 18.6625 4.61366 18.55Z" fill="#E7194E"/>
<path d="M15.4033 21.6816C16.2674 21.5995 16.9025 20.8197 16.8219 19.9398C16.7413 19.0599 15.9754 18.4132 15.1114 18.4953C14.2473 18.5774 13.6122 19.3572 13.6929 20.2371C13.7735 21.117 14.5393 21.7637 15.4033 21.6816Z" fill="#E7194E"/>
<path d="M11.439 21.175C11.1076 21.7625 11.304 22.5 11.881 22.8375C12.4579 23.175 13.1822 22.975 13.5136 22.3875C13.8451 21.8 13.6486 21.0625 13.0717 20.725C12.4947 20.3875 11.7582 20.5875 11.439 21.175Z" fill="#E7194E"/>
<path d="M9.67126 21.575C9.27844 21.35 8.77514 21.475 8.55418 21.8875C8.33322 22.2875 8.45598 22.8 8.8488 23.025C9.24161 23.25 9.74491 23.125 9.96587 22.725C10.1991 22.3125 10.0641 21.8 9.67126 21.575Z" fill="#E7194E"/>
<path d="M7.09348 21.8125C6.79887 21.6375 6.41833 21.7375 6.24647 22.05C6.07461 22.35 6.17282 22.7375 6.4797 22.9125C6.77432 23.0875 7.15486 22.9875 7.32672 22.675C7.49857 22.375 7.40037 21.9875 7.09348 21.8125Z" fill="#E7194E"/>
<path d="M5.31359 21.9625C5.17856 21.8875 5.01898 21.925 4.93305 22.0625C4.85939 22.2 4.89622 22.3625 5.03125 22.45C5.16628 22.525 5.32586 22.4875 5.41179 22.35C5.48545 22.2125 5.44862 22.0375 5.31359 21.9625Z" fill="#E7194E"/>
<path d="M16.8034 23.7625C16.8771 23.1 16.3983 22.5 15.7477 22.425C15.0971 22.35 14.5079 22.8375 14.4342 23.5C14.3606 24.1625 14.8393 24.7625 15.4899 24.8375C16.1405 24.9125 16.7298 24.425 16.8034 23.7625Z" fill="#E7194E"/>
<path d="M13.0839 24.5C12.6297 24.45 12.2246 24.7875 12.1755 25.2375C12.1264 25.7 12.4578 26.1125 12.8997 26.1625C13.3539 26.2125 13.759 25.875 13.8081 25.425C13.8572 24.9625 13.5381 24.55 13.0839 24.5Z" fill="#E7194E"/>
<path d="M11.267 26.2C10.9233 26.1625 10.6164 26.4125 10.5796 26.7625C10.5428 27.1125 10.7883 27.425 11.132 27.4625C11.4757 27.5 11.7826 27.25 11.8194 26.9C11.8562 26.55 11.6107 26.2375 11.267 26.2Z" fill="#E7194E"/>
<path d="M9.63448 27.1125C9.48717 27.1 9.35214 27.2125 9.32759 27.3625C9.31532 27.5125 9.4258 27.65 9.5731 27.675C9.72041 27.6875 9.85544 27.575 9.87999 27.425C9.89227 27.2625 9.78179 27.125 9.63448 27.1125Z" fill="#E7194E"/>
<path d="M11.6968 24.3625C11.8318 23.925 11.5863 23.45 11.1566 23.3125C10.727 23.175 10.2605 23.425 10.1255 23.8625C9.99046 24.3 10.236 24.775 10.6656 24.9125C11.0953 25.05 11.5617 24.8 11.6968 24.3625Z" fill="#E7194E"/>
<path d="M8.83649 24.25C8.50505 24.15 8.16134 24.325 8.06313 24.6625C7.96493 25 8.13679 25.35 8.46822 25.45C8.79966 25.55 9.14338 25.375 9.24158 25.0375C9.35206 24.7125 9.16793 24.35 8.83649 24.25Z" fill="#E7194E"/>
<path d="M7.22844 24.7625C7.08113 24.7125 6.93382 24.8 6.88472 24.95C6.83562 25.1 6.92155 25.25 7.06885 25.3C7.21616 25.35 7.36347 25.2625 7.41257 25.1125C7.4494 24.975 7.37574 24.8125 7.22844 24.7625Z" fill="#E7194E"/>
<path d="M14.9744 25.5875C14.5325 25.6875 14.2502 26.1375 14.3484 26.5875C14.4466 27.0375 14.8885 27.325 15.3304 27.225C15.7723 27.125 16.0547 26.675 15.9565 26.225C15.8583 25.775 15.4163 25.4875 14.9744 25.5875Z" fill="#E7194E"/>
<path d="M13.6609 27.45C13.3295 27.525 13.1208 27.8625 13.1945 28.2C13.2681 28.5375 13.5996 28.75 13.931 28.675C14.2624 28.6 14.4711 28.2625 14.3975 27.925C14.3238 27.5875 13.9924 27.3625 13.6609 27.45Z" fill="#E7194E"/>
<path d="M12.5192 28.7125C12.3719 28.75 12.2737 28.9 12.3105 29.05C12.3473 29.2 12.4946 29.3 12.6419 29.2625C12.7892 29.225 12.8875 29.075 12.8506 28.925C12.8138 28.775 12.6665 28.675 12.5192 28.7125Z" fill="#E7194E"/>
<path d="M18.1536 24C18.4851 24.5875 19.2093 24.7875 19.7863 24.45C20.3632 24.1125 20.5597 23.375 20.2282 22.7875C19.8968 22.2 19.1725 22 18.5956 22.3375C18.0186 22.675 17.8222 23.425 18.1536 24Z" fill="#E7194E"/>
<path d="M17.6135 25.7625C17.2207 25.9875 17.0857 26.5 17.3189 26.9C17.5399 27.3 18.0432 27.4375 18.436 27.2125C18.8288 26.9875 18.9638 26.475 18.7429 26.075C18.5096 25.6625 18.0063 25.525 17.6135 25.7625Z" fill="#E7194E"/>
<path d="M16.5332 28.15C16.2386 28.325 16.1281 28.7125 16.3 29.0125C16.4718 29.3125 16.8524 29.4125 17.147 29.25C17.4416 29.075 17.5398 28.6875 17.3802 28.3875C17.2206 28.075 16.8401 27.975 16.5332 28.15Z" fill="#E7194E"/>
<path d="M23.0394 20.5625C22.5115 20.1625 21.7627 20.2875 21.3699 20.825C20.9771 21.3625 21.0998 22.125 21.6277 22.525C22.1555 22.925 22.9043 22.8 23.2972 22.2625C23.69 21.725 23.5795 20.9625 23.0394 20.5625Z" fill="#E7194E"/>
<path d="M21.8117 24.2125C21.5417 24.5875 21.6276 25.1125 21.9959 25.3875C22.3641 25.6625 22.8797 25.575 23.1498 25.2C23.4198 24.825 23.3339 24.3 22.9656 24.025C22.5974 23.7625 22.0818 23.8375 21.8117 24.2125Z" fill="#E7194E"/>
<path d="M22.352 26.6625C22.1556 26.95 22.2047 27.3375 22.4871 27.55C22.7694 27.75 23.15 27.7 23.3586 27.4125C23.555 27.125 23.5059 26.7375 23.2236 26.525C22.9413 26.325 22.5484 26.3875 22.352 26.6625Z" fill="#E7194E"/>
<path d="M22.315 28.5625C22.2291 28.6875 22.2537 28.8625 22.3764 28.95C22.4992 29.0375 22.671 29.0125 22.757 28.8875C22.8429 28.7625 22.8183 28.5875 22.6956 28.5C22.5728 28.4125 22.401 28.4375 22.315 28.5625Z" fill="#E7194E"/>
<path d="M21.0017 25.375C20.6948 25.0375 20.1792 25.0125 19.8355 25.325C19.5041 25.6375 19.4795 26.1625 19.7864 26.5125C20.0933 26.85 20.6089 26.875 20.9526 26.5625C21.284 26.2375 21.3086 25.7125 21.0017 25.375Z" fill="#E7194E"/>
<path d="M19.4794 27.8375C19.2216 28.075 19.2093 28.475 19.4425 28.7375C19.6758 29 20.0686 29.0125 20.3264 28.775C20.5842 28.5375 20.5964 28.1375 20.3632 27.875C20.13 27.6125 19.7372 27.6 19.4794 27.8375Z" fill="#E7194E"/>
<path d="M19.1112 29.5125C19.0007 29.6125 18.9885 29.8 19.099 29.9125C19.1972 30.025 19.3813 30.0375 19.4918 29.925C19.6022 29.825 19.6145 29.6375 19.504 29.525C19.3936 29.4125 19.2217 29.4125 19.1112 29.5125Z" fill="#E7194E"/>
<path d="M23.6899 23.0875C23.5549 23.525 23.8004 24 24.2301 24.1375C24.6597 24.275 25.1262 24.025 25.2612 23.5875C25.3962 23.15 25.1507 22.675 24.7211 22.5375C24.2792 22.4 23.825 22.65 23.6899 23.0875Z" fill="#E7194E"/>
<path d="M24.6107 25.175C24.5125 25.5125 24.6844 25.8625 25.0158 25.9625C25.3473 26.0625 25.691 25.8875 25.7892 25.55C25.8874 25.2125 25.7155 24.8625 25.3841 24.7625C25.0527 24.6625 24.7089 24.8375 24.6107 25.175Z" fill="#E7194E"/>
<path d="M25.114 26.8125C25.0649 26.9625 25.1508 27.1125 25.2981 27.1625C25.4454 27.2125 25.5927 27.125 25.6418 26.975C25.6909 26.825 25.605 26.675 25.4577 26.625C25.3104 26.5875 25.1631 26.675 25.114 26.8125Z" fill="#E7194E"/>
<path d="M21.0876 18.2625C21.9554 18.2625 22.6589 17.5462 22.6589 16.6625C22.6589 15.7788 21.9554 15.0625 21.0876 15.0625C20.2198 15.0625 19.5164 15.7788 19.5164 16.6625C19.5164 17.5462 20.2198 18.2625 21.0876 18.2625Z" fill="#E7194E"/>
<path d="M23.9231 19.4875C24.586 19.4875 25.1139 18.9375 25.1139 18.275C25.1139 17.6 24.5738 17.0625 23.9231 17.0625C23.2603 17.0625 22.7324 17.6125 22.7324 18.275C22.7324 18.95 23.2725 19.4875 23.9231 19.4875Z" fill="#E7194E"/>
<path d="M25.1509 20.85C25.1509 21.3125 25.5191 21.6875 25.9733 21.6875C26.4275 21.6875 26.7958 21.3125 26.7958 20.85C26.7958 20.3875 26.4275 20.0125 25.9733 20.0125C25.5191 20.0125 25.1509 20.3875 25.1509 20.85Z" fill="#E7194E"/>
<path d="M26.6484 22.9875C26.6484 23.3375 26.9308 23.625 27.2745 23.625C27.6182 23.625 27.9005 23.3375 27.9005 22.9875C27.9005 22.6375 27.6182 22.35 27.2745 22.35C26.9185 22.3625 26.6484 22.6375 26.6484 22.9875Z" fill="#E7194E"/>
<path d="M27.655 24.4875C27.655 24.6375 27.7778 24.7625 27.9251 24.7625C28.0724 24.7625 28.1952 24.6375 28.1952 24.4875C28.1952 24.3375 28.0724 24.2125 27.9251 24.2125C27.7778 24.2125 27.655 24.3375 27.655 24.4875Z" fill="#E7194E"/>
<path d="M23.4444 13.4625C22.8429 13.7375 22.5729 14.45 22.8307 15.0625C23.1007 15.675 23.8004 15.95 24.4019 15.6875C25.0034 15.425 25.2735 14.7 25.0157 14.0875C24.7579 13.4625 24.0459 13.1875 23.4444 13.4625Z" fill="#E7194E"/>
<path d="M25.9363 16.375C26.1204 16.8 26.5992 16.9875 27.0166 16.8C27.4339 16.6125 27.6181 16.125 27.4339 15.7C27.2498 15.275 26.771 15.0875 26.3537 15.275C25.9363 15.45 25.7522 15.95 25.9363 16.375Z" fill="#E7194E"/>
<path d="M28.2934 17.125C28.4284 17.45 28.7967 17.5875 29.1159 17.45C29.435 17.3125 29.5701 16.9375 29.435 16.6125C29.3 16.2875 28.9317 16.15 28.6126 16.2875C28.2934 16.425 28.1461 16.8 28.2934 17.125Z" fill="#E7194E"/>
<path d="M29.8891 18.1125C29.9505 18.25 30.11 18.3125 30.2573 18.25C30.3924 18.1875 30.4538 18.025 30.3924 17.875C30.331 17.7375 30.1714 17.675 30.0241 17.7375C29.8891 17.8 29.8277 17.9625 29.8891 18.1125Z" fill="#E7194E"/>
<path d="M26.5132 17.675C26.0713 17.775 25.789 18.225 25.8872 18.675C25.9854 19.125 26.4273 19.4125 26.8692 19.3125C27.3111 19.2125 27.5935 18.7625 27.4953 18.3125C27.3971 17.85 26.9552 17.5625 26.5132 17.675Z" fill="#E7194E"/>
<path d="M27.8392 20.2375C27.9128 20.575 28.2443 20.7875 28.5757 20.7125C28.9071 20.6375 29.1158 20.3 29.0422 19.9625C28.9685 19.625 28.6371 19.4125 28.3056 19.4875C27.9865 19.5625 27.7655 19.9 27.8392 20.2375Z" fill="#E7194E"/>
<path d="M29.0913 21.4C29.1281 21.55 29.2754 21.65 29.4227 21.6125C29.57 21.575 29.6682 21.425 29.6314 21.275C29.5946 21.125 29.4473 21.025 29.2999 21.0625C29.1526 21.1 29.0544 21.25 29.0913 21.4Z" fill="#E7194E"/>
<path d="M25.9119 14.1625C26.2188 14.5 26.7344 14.525 27.0781 14.2125C27.4095 13.9 27.4341 13.375 27.1272 13.025C26.8203 12.6875 26.3047 12.6625 25.961 12.975C25.6296 13.2875 25.605 13.8125 25.9119 14.1625Z" fill="#E7194E"/>
<path d="M28.146 14.3875C28.3792 14.65 28.772 14.6625 29.0298 14.425C29.2876 14.1875 29.2999 13.7875 29.0666 13.525C28.8334 13.2625 28.4406 13.25 28.1828 13.4875C27.9373 13.7375 27.9127 14.1375 28.146 14.3875Z" fill="#E7194E"/>
<path d="M29.8033 14.7625C29.9015 14.875 30.0856 14.8875 30.1961 14.775C30.3066 14.675 30.3189 14.4875 30.2084 14.375C30.1102 14.2625 29.9261 14.25 29.8156 14.3625C29.7051 14.475 29.6928 14.65 29.8033 14.7625Z" fill="#E7194E"/>
<path d="M20.7133 13.4154C20.8124 12.5376 20.194 11.7441 19.332 11.6431C18.4699 11.5421 17.6906 12.1719 17.5915 13.0497C17.4923 13.9275 18.1107 14.721 18.9728 14.822C19.8348 14.923 20.6141 14.2933 20.7133 13.4154Z" fill="#E7194E"/>
<path d="M22.978 12.15C23.3094 11.5625 23.113 10.825 22.5361 10.4875C21.9591 10.15 21.2348 10.35 20.9034 10.9375C20.572 11.525 20.7684 12.2625 21.3453 12.6C21.91 12.925 22.6465 12.725 22.978 12.15Z" fill="#E7194E"/>
<path d="M24.7457 11.7375C25.1385 11.9625 25.6418 11.8375 25.8628 11.425C26.0837 11.025 25.961 10.5125 25.5682 10.2875C25.1753 10.0625 24.672 10.1875 24.4511 10.5875C24.2178 11 24.3406 11.5125 24.7457 11.7375Z" fill="#E7194E"/>
<path d="M27.3113 11.5C27.6059 11.675 27.9864 11.575 28.1583 11.2625C28.3302 10.9625 28.232 10.575 27.9251 10.4C27.6305 10.225 27.2499 10.325 27.0781 10.6375C26.9062 10.9375 27.0167 11.325 27.3113 11.5Z" fill="#E7194E"/>
<path d="M29.0913 11.3625C29.2263 11.4375 29.3859 11.4 29.4718 11.2625C29.5455 11.125 29.5087 10.9625 29.3736 10.875C29.2386 10.8 29.079 10.8375 28.9931 10.975C28.9194 11.1125 28.9685 11.275 29.0913 11.3625Z" fill="#E7194E"/>
<path d="M17.6012 9.55C17.5276 10.2125 18.0063 10.8125 18.6569 10.8875C19.3075 10.9625 19.8968 10.475 19.9704 9.8125C20.0441 9.15 19.5653 8.55 18.9147 8.475C18.2641 8.4 17.6749 8.8875 17.6012 9.55Z" fill="#E7194E"/>
<path d="M21.3209 8.8125C21.7751 8.8625 22.1802 8.525 22.2293 8.075C22.2784 7.6125 21.9469 7.2 21.505 7.15C21.0508 7.1 20.6457 7.4375 20.5966 7.8875C20.5475 8.35 20.879 8.7625 21.3209 8.8125Z" fill="#E7194E"/>
<path d="M23.1376 7.1125C23.4813 7.15 23.7882 6.9 23.825 6.55C23.8618 6.2 23.6163 5.8875 23.2726 5.85C22.9289 5.8125 22.622 6.0625 22.5852 6.4125C22.5606 6.7625 22.8061 7.075 23.1376 7.1125Z" fill="#E7194E"/>
<path d="M24.7824 6.2C24.9297 6.2125 25.0647 6.1 25.0893 5.95C25.1015 5.8 24.9911 5.6625 24.8438 5.6375C24.6964 5.625 24.5614 5.7375 24.5369 5.8875C24.5123 6.05 24.6228 6.1875 24.7824 6.2Z" fill="#E7194E"/>
<path d="M22.7202 8.9625C22.5852 9.4 22.8307 9.875 23.2603 10.0125C23.69 10.15 24.1565 9.9 24.2915 9.4625C24.4265 9.025 24.181 8.55 23.7514 8.4125C23.3094 8.275 22.8553 8.5125 22.7202 8.9625Z" fill="#E7194E"/>
<path d="M25.568 9.0625C25.8995 9.1625 26.2432 8.9875 26.3414 8.65C26.4396 8.3125 26.2677 7.9625 25.9363 7.8625C25.6048 7.7625 25.2611 7.9375 25.1629 8.275C25.0647 8.6 25.2489 8.9625 25.568 9.0625Z" fill="#E7194E"/>
<path d="M27.1885 8.55C27.3358 8.6 27.4831 8.5125 27.5322 8.3625C27.5813 8.2125 27.4954 8.0625 27.3481 8.0125C27.2008 7.9625 27.0535 8.05 27.0043 8.2C26.9552 8.35 27.0412 8.5 27.1885 8.55Z" fill="#E7194E"/>
<path d="M19.4303 7.725C19.8722 7.625 20.1545 7.175 20.0563 6.725C19.9581 6.275 19.5162 5.9875 19.0743 6.0875C18.6324 6.1875 18.35 6.6375 18.4482 7.0875C18.5587 7.5375 18.9883 7.825 19.4303 7.725Z" fill="#E7194E"/>
<path d="M20.7437 5.875C21.0752 5.8 21.2839 5.4625 21.2102 5.125C21.1366 4.7875 20.8051 4.575 20.4737 4.65C20.1422 4.725 19.9336 5.0625 20.0072 5.4C20.0809 5.7375 20.4123 5.95 20.7437 5.875Z" fill="#E7194E"/>
<path d="M21.8853 4.6C22.0327 4.5625 22.1309 4.4125 22.094 4.2625C22.0572 4.1125 21.9099 4.0125 21.7626 4.05C21.6153 4.0875 21.5171 4.2375 21.5539 4.3875C21.5907 4.5375 21.738 4.6375 21.8853 4.6Z" fill="#E7194E"/>
<path d="M19.1479 21.6875C20.0157 21.6875 20.7192 20.9712 20.7192 20.0875C20.7192 19.2038 20.0157 18.4875 19.1479 18.4875C18.2801 18.4875 17.5767 19.2038 17.5767 20.0875C17.5767 20.9712 18.2801 21.6875 19.1479 21.6875Z" fill="#E7194E"/>
<path d="M98.0798 26.7875C99.2323 26.7875 100.167 25.8361 100.167 24.6625C100.167 23.4889 99.2323 22.5375 98.0798 22.5375C96.9272 22.5375 95.9929 23.4889 95.9929 24.6625C95.9929 25.8361 96.9272 26.7875 98.0798 26.7875Z" fill="#DFDFE3"/>
</g>
<defs>
<clipPath id="clip0_217_165900">
<rect width="121" height="27" fill="white" transform="translate(4 3)"/>
</clipPath>
</defs>
</svg>
