<svg width="121" height="28" viewBox="0 0 121 28" fill="none" xmlns="http://www.w3.org/2000/svg">
<g clip-path="url(#clip0_278_10596)">
<path d="M33.954 20.0876C33.954 21.1501 33.5735 22.0626 32.8246 22.8376C32.0758 23.6001 31.1797 23.9876 30.124 23.9876V14.7001C30.124 12.1376 31.0324 9.95007 32.8369 8.15007C34.6537 6.35007 36.8142 5.45007 39.3307 5.45007H44.6951C44.6951 6.47507 44.3391 7.33757 43.6394 8.05007C42.9397 8.76257 42.0804 9.12507 41.0861 9.12507H39.3307C37.8331 9.12507 36.5564 9.67507 35.513 10.7626C34.4696 11.8501 33.9417 13.1626 33.9417 14.6876V20.0876H33.954Z" fill="#242745"/>
<path d="M60.0521 9.35007C60.0521 8.28757 60.4326 7.37507 61.1814 6.60007C61.9302 5.83757 62.8264 5.45007 63.8821 5.45007V14.6876C63.8821 17.2501 62.9737 19.4376 61.1692 21.2501C59.3647 23.0626 57.2042 23.9751 54.6877 23.9751C52.1589 23.9751 49.9861 23.0626 48.1816 21.2501C46.3771 19.4376 45.4688 17.2501 45.4688 14.6876V5.45007C46.5122 5.45007 47.4083 5.83757 48.1694 6.60007C48.9182 7.36257 49.2987 8.27507 49.2987 9.35007V14.7001C49.2987 16.2251 49.8266 17.5501 50.87 18.6501C51.9134 19.7501 53.1901 20.3126 54.6877 20.3126C56.173 20.3126 57.4374 19.7626 58.4808 18.6501C59.5242 17.5376 60.0521 16.2251 60.0521 14.7126V9.35007Z" fill="#242745"/>
<path d="M69.4671 4.73752V5.45002H74.8561C77.3848 5.45002 79.5576 6.35002 81.3744 8.15002C83.1912 9.95002 84.0873 12.125 84.0873 14.7C84.0873 17.2625 83.1789 19.45 81.3621 21.2625C79.5453 23.075 77.3726 23.9875 74.8561 23.9875C72.3396 23.9875 70.1791 23.075 68.3623 21.2625C66.5455 19.45 65.6494 17.2625 65.6494 14.7V0.837524C66.6928 0.837524 67.5889 1.22502 68.35 1.98752C69.0988 2.75002 69.4671 3.66252 69.4671 4.73752ZM80.2328 14.7C80.2328 13.175 79.7172 11.8625 78.6738 10.775C77.6303 9.68752 76.3537 9.13752 74.8561 9.13752H69.4794V14.7C69.4794 16.225 69.995 17.55 71.0384 18.65C72.0818 19.75 73.3585 20.3125 74.8561 20.3125C76.366 20.3125 77.6303 19.7625 78.6738 18.65C79.7049 17.5375 80.2328 16.225 80.2328 14.7Z" fill="#242745"/>
<path d="M89.3778 23.9876C88.3344 23.9876 87.4383 23.6001 86.6772 22.8376C85.9284 22.0751 85.5479 21.1626 85.5479 20.0876V5.45007C86.5913 5.45007 87.4874 5.83757 88.2485 6.60007C88.9973 7.36257 89.3778 8.27507 89.3778 9.35007V23.9876Z" fill="#242745"/>
<path d="M115.402 14.7375V23.975H106.171C103.654 23.975 101.494 23.075 99.6768 21.275C97.86 19.475 96.9639 17.3 96.9639 14.725C96.9639 12.1625 97.8723 9.975 99.6768 8.1625C101.494 6.35 103.654 5.4375 106.171 5.4375C108.687 5.4375 110.86 6.35 112.677 8.1625C114.493 9.9875 115.402 12.175 115.402 14.7375ZM111.535 20.3V14.7375C111.535 13.2125 111.019 11.8875 109.976 10.7875C108.933 9.6875 107.656 9.125 106.158 9.125C104.648 9.125 103.384 9.675 102.341 10.7875C101.297 11.8875 100.782 13.2125 100.782 14.7375C100.782 16.2625 101.297 17.575 102.341 18.6625C103.384 19.75 104.661 20.3 106.158 20.3H111.535Z" fill="#242745"/>
<path d="M121 23.9876C119.956 23.9876 119.06 23.6001 118.299 22.8376C117.55 22.0751 117.17 21.1626 117.17 20.0876V5.45007C118.213 5.45007 119.109 5.83757 119.871 6.60007C120.619 7.36257 121 8.27507 121 9.35007V23.9876Z" fill="#242745"/>
<path d="M11.2568 12.3375C12.1246 12.3375 12.8281 11.6211 12.8281 10.7375C12.8281 9.8538 12.1246 9.13745 11.2568 9.13745C10.389 9.13745 9.68555 9.8538 9.68555 10.7375C9.68555 11.6211 10.389 12.3375 11.2568 12.3375Z" fill="#E7194E"/>
<path d="M12.2512 6.81252C11.9197 6.22502 11.1955 6.02502 10.6185 6.36252C10.0416 6.70002 9.84516 7.43752 10.1766 8.02502C10.508 8.61252 11.2323 8.81252 11.8092 8.47502C12.3862 8.13752 12.5826 7.40002 12.2512 6.81252Z" fill="#E7194E"/>
<path d="M12.791 5.05001C13.1838 4.82501 13.3189 4.31251 13.0856 3.91251C12.8647 3.51251 12.3614 3.37501 11.9686 3.60001C11.5757 3.82501 11.4407 4.33751 11.6617 4.73751C11.8949 5.15001 12.3982 5.28751 12.791 5.05001Z" fill="#E7194E"/>
<path d="M13.8713 2.66252C14.1659 2.48752 14.2764 2.10002 14.1045 1.80002C13.9327 1.50002 13.5521 1.40002 13.2575 1.56252C12.9629 1.73752 12.8647 2.12502 13.0243 2.42502C13.1961 2.73752 13.5767 2.83752 13.8713 2.66252Z" fill="#E7194E"/>
<path d="M14.6444 1.02499C14.7794 0.949988 14.8163 0.774988 14.7426 0.637488C14.6689 0.499988 14.4971 0.462488 14.3621 0.537488C14.227 0.612488 14.1902 0.787488 14.2639 0.924988C14.3375 1.04999 14.5094 1.09999 14.6444 1.02499Z" fill="#E7194E"/>
<path d="M7.36572 10.25C7.89357 10.65 8.64238 10.525 9.0352 9.98745C9.42801 9.44995 9.30526 8.68745 8.77741 8.28745C8.24956 7.88745 7.50075 8.01245 7.10794 8.54995C6.71512 9.09995 6.83787 9.86245 7.36572 10.25Z" fill="#E7194E"/>
<path d="M8.59265 6.59998C8.86271 6.22498 8.77678 5.69998 8.40851 5.42498C8.04025 5.14998 7.52467 5.23748 7.25461 5.61248C6.98455 5.98748 7.07048 6.51248 7.43875 6.78748C7.80701 7.04998 8.32258 6.97498 8.59265 6.59998Z" fill="#E7194E"/>
<path d="M8.05297 4.15004C8.24938 3.86254 8.20028 3.47504 7.91794 3.26254C7.6356 3.06254 7.25506 3.11254 7.04638 3.40004C6.84997 3.68754 6.89907 4.07504 7.18141 4.28754C7.46375 4.50004 7.85656 4.43754 8.05297 4.15004Z" fill="#E7194E"/>
<path d="M8.10217 2.24997C8.18809 2.12497 8.16354 1.94997 8.04079 1.86247C7.91803 1.77497 7.74618 1.79997 7.66025 1.92497C7.57432 2.04997 7.59887 2.22497 7.72162 2.31247C7.8321 2.39997 8.00396 2.37497 8.10217 2.24997Z" fill="#E7194E"/>
<path d="M9.41528 5.45003C9.72217 5.78753 10.2377 5.81253 10.5815 5.50003C10.9129 5.18753 10.9374 4.66253 10.6306 4.31253C10.3237 3.97503 9.8081 3.95003 9.46438 4.26253C9.12067 4.57503 9.10839 5.10003 9.41528 5.45003Z" fill="#E7194E"/>
<path d="M10.925 2.98746C11.1828 2.74996 11.1951 2.34996 10.9618 2.08746C10.7286 1.82496 10.3358 1.81246 10.078 2.04996C9.82022 2.28746 9.80795 2.68746 10.0412 2.94996C10.2867 3.19996 10.6795 3.22496 10.925 2.98746Z" fill="#E7194E"/>
<path d="M11.293 1.29997C11.4035 1.19997 11.4158 1.01247 11.3053 0.899967C11.2071 0.787467 11.023 0.774967 10.9125 0.887467C10.802 0.987467 10.7897 1.17497 10.9002 1.28747C11.0107 1.39997 11.1826 1.41247 11.293 1.29997Z" fill="#E7194E"/>
<path d="M6.72655 7.725C6.86158 7.2875 6.61607 6.8125 6.18643 6.675C5.75678 6.5375 5.29031 6.7875 5.15528 7.225C5.02025 7.6625 5.26576 8.1375 5.6954 8.275C6.12505 8.4125 6.59152 8.1625 6.72655 7.725Z" fill="#E7194E"/>
<path d="M5.80652 5.63751C5.90473 5.30001 5.73287 4.95001 5.40143 4.85001C5.06999 4.75001 4.72628 4.92501 4.62807 5.26251C4.52987 5.60001 4.70173 5.95001 5.03317 6.05001C5.35233 6.16251 5.69604 5.97501 5.80652 5.63751Z" fill="#E7194E"/>
<path d="M5.29074 3.99999C5.33984 3.84999 5.25392 3.69999 5.10661 3.64999C4.9593 3.59999 4.812 3.68749 4.76289 3.83749C4.71379 3.98749 4.79972 4.13749 4.94703 4.18749C5.09433 4.22499 5.25392 4.14999 5.29074 3.99999Z" fill="#E7194E"/>
<path d="M9.31736 15.7625C10.1852 15.7625 10.8886 15.0462 10.8886 14.1625C10.8886 13.2788 10.1852 12.5625 9.31736 12.5625C8.44958 12.5625 7.74609 13.2788 7.74609 14.1625C7.74609 15.0462 8.44958 15.7625 9.31736 15.7625Z" fill="#E7194E"/>
<path d="M6.48174 11.325C5.81886 11.325 5.29102 11.875 5.29102 12.5375C5.29102 13.2125 5.83114 13.75 6.48174 13.75C7.13235 13.75 7.67247 13.2 7.67247 12.5375C7.67247 11.875 7.14462 11.325 6.48174 11.325Z" fill="#E7194E"/>
<path d="M5.2543 9.97495C5.2543 9.51245 4.88603 9.13745 4.43184 9.13745C3.97764 9.13745 3.60938 9.51245 3.60938 9.97495C3.60938 10.4375 3.97764 10.8125 4.43184 10.8125C4.88603 10.8125 5.2543 10.4375 5.2543 9.97495Z" fill="#E7194E"/>
<path d="M3.76871 7.825C3.76871 7.475 3.48637 7.1875 3.14265 7.1875C2.79894 7.1875 2.5166 7.475 2.5166 7.825C2.5166 8.175 2.79894 8.4625 3.14265 8.4625C3.48637 8.4625 3.76871 8.175 3.76871 7.825Z" fill="#E7194E"/>
<path d="M2.75008 6.32505C2.75008 6.17505 2.62733 6.05005 2.48002 6.05005C2.33272 6.05005 2.20996 6.17505 2.20996 6.32505C2.20996 6.47505 2.33272 6.60005 2.48002 6.60005C2.62733 6.60005 2.75008 6.47505 2.75008 6.32505Z" fill="#E7194E"/>
<path d="M6.95978 17.35C7.56128 17.075 7.83134 16.3625 7.57356 15.75C7.3035 15.1375 6.60379 14.8625 6.00229 15.125C5.40079 15.3875 5.13073 16.1125 5.38851 16.725C5.65857 17.35 6.35828 17.625 6.95978 17.35Z" fill="#E7194E"/>
<path d="M4.46835 14.45C4.28422 14.025 3.80547 13.8375 3.3881 14.025C2.97073 14.2125 2.7866 14.7 2.97073 15.125C3.15487 15.55 3.63361 15.7375 4.05098 15.55C4.46835 15.3625 4.65248 14.8625 4.46835 14.45Z" fill="#E7194E"/>
<path d="M2.12338 13.6875C1.98835 13.3625 1.62008 13.225 1.30092 13.3625C0.981754 13.5 0.846723 13.875 0.981754 14.2C1.11678 14.525 1.48505 14.6625 1.80422 14.525C2.1111 14.3875 2.25841 14.0125 2.12338 13.6875Z" fill="#E7194E"/>
<path d="M0.528122 12.7124C0.466744 12.5749 0.307162 12.5124 0.159855 12.5749C0.0248245 12.6374 -0.0365532 12.7999 0.0248245 12.9499C0.0862022 13.0874 0.245784 13.1499 0.393091 13.0874C0.528122 13.0124 0.589499 12.8499 0.528122 12.7124Z" fill="#E7194E"/>
<path d="M3.9039 13.15C4.34582 13.05 4.62815 12.6 4.52995 12.15C4.43175 11.7 3.98983 11.4125 3.54791 11.5125C3.10599 11.6125 2.82365 12.0625 2.92185 12.5125C3.02006 12.9625 3.46198 13.25 3.9039 13.15Z" fill="#E7194E"/>
<path d="M2.56544 10.575C2.49179 10.2375 2.16035 10.025 1.82891 10.1C1.49747 10.175 1.28879 10.5125 1.36244 10.85C1.4361 11.1875 1.76753 11.4 2.09897 11.325C2.43041 11.25 2.6391 10.9125 2.56544 10.575Z" fill="#E7194E"/>
<path d="M1.31351 9.41255C1.27669 9.26255 1.12938 9.16255 0.982075 9.20005C0.834769 9.23755 0.736565 9.38755 0.773391 9.53755C0.810218 9.68755 0.957524 9.78755 1.10483 9.75005C1.25214 9.71255 1.35034 9.56255 1.31351 9.41255Z" fill="#E7194E"/>
<path d="M4.49242 16.6625C4.18553 16.325 3.66996 16.3 3.32624 16.6125C2.9948 16.925 2.97025 17.45 3.27714 17.8C3.58403 18.1375 4.0996 18.1625 4.44332 17.85C4.77476 17.525 4.79931 17 4.49242 16.6625Z" fill="#E7194E"/>
<path d="M2.25872 16.425C2.02549 16.1625 1.63267 16.15 1.37488 16.3875C1.1171 16.625 1.10482 17.025 1.33806 17.2875C1.57129 17.55 1.96411 17.5625 2.22189 17.325C2.47968 17.0875 2.49196 16.6875 2.25872 16.425Z" fill="#E7194E"/>
<path d="M0.613906 16.05C0.515702 15.9375 0.331569 15.925 0.221089 16.0375C0.110609 16.1375 0.0983334 16.325 0.208813 16.4375C0.307018 16.55 0.491151 16.5625 0.601631 16.45C0.699835 16.3375 0.71211 16.1625 0.613906 16.05Z" fill="#E7194E"/>
<path d="M11.4033 19.1816C12.2674 19.0995 12.9025 18.3197 12.8219 17.4399C12.7413 16.56 11.9754 15.9133 11.1114 15.9954C10.2473 16.0775 9.61223 16.8573 9.69285 17.7372C9.77348 18.617 10.5393 19.2637 11.4033 19.1816Z" fill="#E7194E"/>
<path d="M7.43929 18.6749C7.10785 19.2624 7.30426 20 7.88121 20.3375C8.45816 20.675 9.18242 20.475 9.51386 19.8875C9.8453 19.3 9.64889 18.5625 9.07194 18.225C8.49499 17.8875 7.75846 18.0874 7.43929 18.6749Z" fill="#E7194E"/>
<path d="M5.6715 19.075C5.27869 18.85 4.77539 18.975 4.55443 19.3875C4.33347 19.7875 4.45622 20.3 4.84904 20.525C5.24186 20.75 5.74516 20.625 5.96612 20.225C6.19935 19.8125 6.06432 19.3 5.6715 19.075Z" fill="#E7194E"/>
<path d="M3.09324 19.3125C2.79862 19.1375 2.41808 19.2375 2.24623 19.55C2.07437 19.85 2.17257 20.2375 2.47946 20.4125C2.77407 20.5875 3.15462 20.4875 3.32647 20.175C3.49833 19.875 3.40013 19.4875 3.09324 19.3125Z" fill="#E7194E"/>
<path d="M1.31334 19.4625C1.17831 19.3875 1.01873 19.425 0.932802 19.5625C0.859149 19.7 0.895976 19.8625 1.03101 19.95C1.16604 20.025 1.32562 19.9875 1.41155 19.85C1.4852 19.7125 1.44837 19.5375 1.31334 19.4625Z" fill="#E7194E"/>
<path d="M12.8034 21.2625C12.8771 20.6 12.3983 20 11.7477 19.925C11.0971 19.85 10.5079 20.3375 10.4342 21C10.3606 21.6625 10.8393 22.2625 11.4899 22.3375C12.1405 22.4125 12.7298 21.925 12.8034 21.2625Z" fill="#E7194E"/>
<path d="M9.08412 22C8.62992 21.95 8.22483 22.2875 8.17573 22.7375C8.12662 23.2 8.45806 23.6125 8.89998 23.6625C9.35418 23.7125 9.75927 23.375 9.80837 22.925C9.85747 22.4625 9.53831 22.05 9.08412 22Z" fill="#E7194E"/>
<path d="M7.26726 23.7C6.92354 23.6625 6.61665 23.9125 6.57983 24.2625C6.543 24.6125 6.78851 24.925 7.13223 24.9625C7.47594 25 7.78283 24.75 7.81966 24.4C7.85648 24.05 7.61097 23.7375 7.26726 23.7Z" fill="#E7194E"/>
<path d="M5.63399 24.6125C5.48669 24.6 5.35165 24.7125 5.3271 24.8625C5.31483 25.0125 5.42531 25.15 5.57261 25.175C5.71992 25.1875 5.85495 25.075 5.8795 24.925C5.89178 24.7625 5.7813 24.625 5.63399 24.6125Z" fill="#E7194E"/>
<path d="M7.69725 21.8625C7.83228 21.425 7.58677 20.95 7.15713 20.8125C6.72748 20.675 6.26101 20.925 6.12598 21.3625C5.99095 21.8 6.23646 22.275 6.66611 22.4125C7.09575 22.55 7.56222 22.3 7.69725 21.8625Z" fill="#E7194E"/>
<path d="M4.83698 21.75C4.50554 21.65 4.16182 21.825 4.06362 22.1625C3.96542 22.5 4.13727 22.85 4.46871 22.95C4.80015 23.05 5.14387 22.875 5.24207 22.5375C5.35255 22.2125 5.16842 21.85 4.83698 21.75Z" fill="#E7194E"/>
<path d="M3.22868 22.2625C3.08137 22.2125 2.93407 22.3 2.88496 22.45C2.83586 22.6 2.92179 22.75 3.0691 22.8C3.2164 22.85 3.36371 22.7625 3.41281 22.6125C3.44964 22.475 3.37599 22.3125 3.22868 22.2625Z" fill="#E7194E"/>
<path d="M10.9747 23.0875C10.5327 23.1875 10.2504 23.6375 10.3486 24.0875C10.4468 24.5375 10.8887 24.825 11.3307 24.725C11.7726 24.625 12.0549 24.175 11.9567 23.725C11.8585 23.275 11.4166 22.9875 10.9747 23.0875Z" fill="#E7194E"/>
<path d="M9.66094 24.95C9.3295 25.025 9.12082 25.3625 9.19447 25.7C9.26813 26.0375 9.59957 26.25 9.93101 26.175C10.2624 26.1 10.4711 25.7625 10.3975 25.425C10.3238 25.0875 9.99238 24.8625 9.66094 24.95Z" fill="#E7194E"/>
<path d="M8.51919 26.2125C8.37188 26.25 8.27367 26.4 8.3105 26.55C8.34733 26.7 8.49463 26.8 8.64194 26.7625C8.78925 26.725 8.88745 26.575 8.85062 26.425C8.8138 26.275 8.66649 26.175 8.51919 26.2125Z" fill="#E7194E"/>
<path d="M14.1541 21.5C14.4856 22.0875 15.2098 22.2875 15.7868 21.95C16.3637 21.6125 16.5601 20.875 16.2287 20.2875C15.8973 19.7 15.173 19.5 14.5961 19.8375C14.0191 20.175 13.8227 20.925 14.1541 21.5Z" fill="#E7194E"/>
<path d="M13.6133 23.2624C13.2205 23.4874 13.0854 23.9999 13.3187 24.3999C13.5396 24.7999 14.0429 24.9374 14.4357 24.7124C14.8286 24.4874 14.9636 23.9749 14.7426 23.5749C14.5094 23.1624 14.0061 23.0249 13.6133 23.2624Z" fill="#E7194E"/>
<path d="M12.5335 25.65C12.2388 25.825 12.1284 26.2125 12.3002 26.5125C12.4721 26.8125 12.8526 26.9125 13.1472 26.75C13.4418 26.575 13.5401 26.1875 13.3805 25.8875C13.2209 25.575 12.8403 25.475 12.5335 25.65Z" fill="#E7194E"/>
<path d="M19.0391 18.0625C18.5113 17.6625 17.7625 17.7875 17.3697 18.325C16.9768 18.8625 17.0996 19.625 17.6274 20.025C18.1553 20.425 18.9041 20.3 19.2969 19.7625C19.6897 19.225 19.5793 18.4625 19.0391 18.0625Z" fill="#E7194E"/>
<path d="M17.8122 21.7125C17.5422 22.0875 17.6281 22.6125 17.9964 22.8875C18.3646 23.1625 18.8802 23.075 19.1503 22.7C19.4203 22.325 19.3344 21.8 18.9661 21.525C18.5979 21.2625 18.0823 21.3375 17.8122 21.7125Z" fill="#E7194E"/>
<path d="M18.352 24.1625C18.1556 24.45 18.2047 24.8375 18.4871 25.05C18.7694 25.25 19.15 25.2 19.3586 24.9125C19.555 24.625 19.5059 24.2375 19.2236 24.025C18.9413 23.825 18.5484 23.8875 18.352 24.1625Z" fill="#E7194E"/>
<path d="M18.3155 26.0625C18.2296 26.1875 18.2541 26.3625 18.3769 26.45C18.4997 26.5375 18.6715 26.5125 18.7574 26.3875C18.8434 26.2625 18.8188 26.0875 18.6961 26C18.5733 25.9125 18.4014 25.9375 18.3155 26.0625Z" fill="#E7194E"/>
<path d="M17.0012 22.875C16.6943 22.5375 16.1787 22.5125 15.835 22.825C15.5036 23.1375 15.479 23.6625 15.7859 24.0125C16.0928 24.35 16.6084 24.375 16.9521 24.0625C17.2835 23.7375 17.3081 23.2125 17.0012 22.875Z" fill="#E7194E"/>
<path d="M15.4794 25.3376C15.2216 25.5751 15.2093 25.9751 15.4425 26.2376C15.6758 26.5001 16.0686 26.5126 16.3264 26.2751C16.5842 26.0376 16.5964 25.6376 16.3632 25.3751C16.13 25.1126 15.7372 25.1001 15.4794 25.3376Z" fill="#E7194E"/>
<path d="M15.1107 27.0125C15.0003 27.1125 14.988 27.3 15.0985 27.4125C15.1967 27.525 15.3808 27.5375 15.4913 27.425C15.6018 27.325 15.614 27.1375 15.5036 27.025C15.3931 26.9125 15.2212 26.9125 15.1107 27.0125Z" fill="#E7194E"/>
<path d="M19.6904 20.5875C19.5554 21.025 19.8009 21.5001 20.2306 21.6376C20.6602 21.7751 21.1267 21.525 21.2617 21.0875C21.3967 20.65 21.1512 20.1751 20.7216 20.0376C20.2797 19.9001 19.8255 20.15 19.6904 20.5875Z" fill="#E7194E"/>
<path d="M20.6105 22.675C20.5123 23.0125 20.6841 23.3625 21.0156 23.4625C21.347 23.5625 21.6907 23.3875 21.7889 23.05C21.8872 22.7125 21.7153 22.3625 21.3839 22.2625C21.0524 22.1625 20.7087 22.3375 20.6105 22.675Z" fill="#E7194E"/>
<path d="M21.1135 24.3125C21.0644 24.4625 21.1503 24.6125 21.2976 24.6625C21.4449 24.7125 21.5922 24.625 21.6413 24.475C21.6904 24.325 21.6045 24.175 21.4572 24.125C21.3099 24.0875 21.1626 24.175 21.1135 24.3125Z" fill="#E7194E"/>
<path d="M17.0879 15.7625C17.9557 15.7625 18.6591 15.0462 18.6591 14.1625C18.6591 13.2788 17.9557 12.5625 17.0879 12.5625C16.2201 12.5625 15.5166 13.2788 15.5166 14.1625C15.5166 15.0462 16.2201 15.7625 17.0879 15.7625Z" fill="#E7194E"/>
<path d="M19.9231 16.9875C20.586 16.9875 21.1139 16.4375 21.1139 15.775C21.1139 15.1 20.5738 14.5625 19.9231 14.5625C19.2603 14.5625 18.7324 15.1125 18.7324 15.775C18.7324 16.45 19.2725 16.9875 19.9231 16.9875Z" fill="#E7194E"/>
<path d="M21.1504 18.35C21.1504 18.8125 21.5187 19.1875 21.9729 19.1875C22.427 19.1875 22.7953 18.8125 22.7953 18.35C22.7953 17.8875 22.427 17.5125 21.9729 17.5125C21.5187 17.5125 21.1504 17.8875 21.1504 18.35Z" fill="#E7194E"/>
<path d="M22.6484 20.4875C22.6484 20.8375 22.9308 21.125 23.2745 21.125C23.6182 21.125 23.9005 20.8375 23.9005 20.4875C23.9005 20.1375 23.6182 19.85 23.2745 19.85C22.9185 19.8625 22.6484 20.1375 22.6484 20.4875Z" fill="#E7194E"/>
<path d="M23.6553 21.9875C23.6553 22.1375 23.778 22.2625 23.9253 22.2625C24.0726 22.2625 24.1954 22.1375 24.1954 21.9875C24.1954 21.8375 24.0726 21.7125 23.9253 21.7125C23.778 21.7125 23.6553 21.8375 23.6553 21.9875Z" fill="#E7194E"/>
<path d="M19.4447 10.9624C18.8432 11.2374 18.5731 11.9499 18.8309 12.5624C19.101 13.1749 19.8007 13.4499 20.4022 13.1874C21.0037 12.9249 21.2737 12.1999 21.0159 11.5874C20.7582 10.9624 20.0462 10.6874 19.4447 10.9624Z" fill="#E7194E"/>
<path d="M21.9366 13.875C22.1207 14.3 22.5994 14.4875 23.0168 14.3C23.4342 14.1125 23.6183 13.625 23.4342 13.2C23.25 12.775 22.7713 12.5875 22.3539 12.775C21.9366 12.95 21.7524 13.45 21.9366 13.875Z" fill="#E7194E"/>
<path d="M24.2937 14.625C24.4287 14.95 24.797 15.0875 25.1161 14.95C25.4353 14.8125 25.5703 14.4375 25.4353 14.1125C25.3002 13.7875 24.932 13.65 24.6128 13.7875C24.2937 13.925 24.1463 14.3 24.2937 14.625Z" fill="#E7194E"/>
<path d="M25.8891 15.6125C25.9505 15.75 26.11 15.8125 26.2573 15.75C26.3924 15.6875 26.4538 15.525 26.3924 15.375C26.331 15.2375 26.1714 15.175 26.0241 15.2375C25.8891 15.3 25.8277 15.4625 25.8891 15.6125Z" fill="#E7194E"/>
<path d="M22.5137 15.175C22.0718 15.275 21.7895 15.725 21.8877 16.175C21.9859 16.625 22.4278 16.9125 22.8697 16.8125C23.3116 16.7125 23.594 16.2625 23.4958 15.8125C23.3976 15.35 22.9556 15.0625 22.5137 15.175Z" fill="#E7194E"/>
<path d="M23.8394 17.7375C23.9131 18.075 24.2445 18.2875 24.5759 18.2125C24.9074 18.1375 25.1161 17.8 25.0424 17.4625C24.9688 17.125 24.6373 16.9125 24.3059 16.9875C23.9867 17.0625 23.7658 17.4 23.8394 17.7375Z" fill="#E7194E"/>
<path d="M25.0908 18.9C25.1276 19.05 25.2749 19.15 25.4222 19.1125C25.5695 19.075 25.6677 18.925 25.6309 18.775C25.5941 18.625 25.4468 18.525 25.2995 18.5625C25.1522 18.6 25.0539 18.75 25.0908 18.9Z" fill="#E7194E"/>
<path d="M21.9119 11.6626C22.2188 12.0001 22.7344 12.0251 23.0781 11.7126C23.4095 11.4001 23.4341 10.8751 23.1272 10.5251C22.8203 10.1876 22.3047 10.1626 21.961 10.4751C21.6296 10.7876 21.605 11.3126 21.9119 11.6626Z" fill="#E7194E"/>
<path d="M24.1462 11.8875C24.3795 12.15 24.7723 12.1625 25.0301 11.925C25.2879 11.6875 25.3001 11.2875 25.0669 11.025C24.8337 10.7625 24.4408 10.75 24.1831 10.9875C23.9375 11.2375 23.913 11.6375 24.1462 11.8875Z" fill="#E7194E"/>
<path d="M25.8035 12.2624C25.9017 12.3749 26.0859 12.3874 26.1964 12.2749C26.3068 12.1749 26.3191 11.9874 26.2086 11.8749C26.1104 11.7624 25.9263 11.7499 25.8158 11.8624C25.7053 11.9749 25.6931 12.1499 25.8035 12.2624Z" fill="#E7194E"/>
<path d="M16.7135 10.9155C16.8127 10.0377 16.1943 9.24416 15.3322 9.14316C14.4701 9.04216 13.6909 9.6719 13.5917 10.5497C13.4925 11.4275 14.1109 12.221 14.973 12.322C15.8351 12.423 16.6143 11.7933 16.7135 10.9155Z" fill="#E7194E"/>
<path d="M18.9777 9.65002C19.3092 9.06252 19.1128 8.32502 18.5358 7.98752C17.9589 7.65002 17.2346 7.85002 16.9032 8.43752C16.5717 9.02502 16.7681 9.76252 17.3451 10.1C17.9098 10.425 18.6463 10.225 18.9777 9.65002Z" fill="#E7194E"/>
<path d="M20.7459 9.2375C21.1388 9.4625 21.642 9.3375 21.863 8.925C22.084 8.525 21.9612 8.0125 21.5684 7.7875C21.1756 7.5625 20.6723 7.6875 20.4513 8.0875C20.2181 8.5 20.3408 9.0125 20.7459 9.2375Z" fill="#E7194E"/>
<path d="M23.3108 8.99998C23.6054 9.17498 23.986 9.07498 24.1578 8.76248C24.3297 8.46248 24.2315 8.07498 23.9246 7.89998C23.63 7.72498 23.2494 7.82498 23.0776 8.13748C22.9057 8.43748 23.0162 8.82498 23.3108 8.99998Z" fill="#E7194E"/>
<path d="M25.0908 8.86251C25.2258 8.93751 25.3854 8.90001 25.4714 8.76251C25.545 8.62501 25.5082 8.46251 25.3732 8.37501C25.2381 8.30001 25.0785 8.33751 24.9926 8.47501C24.919 8.61251 24.9681 8.77501 25.0908 8.86251Z" fill="#E7194E"/>
<path d="M13.6012 7.05003C13.5276 7.71253 14.0063 8.31253 14.6569 8.38753C15.3075 8.46253 15.8968 7.97503 15.9704 7.31253C16.0441 6.65003 15.5653 6.05003 14.9147 5.97503C14.2641 5.90003 13.6749 6.38753 13.6012 7.05003Z" fill="#E7194E"/>
<path d="M17.3209 6.31256C17.7751 6.36256 18.1802 6.02506 18.2293 5.57506C18.2784 5.11256 17.9469 4.70006 17.505 4.65006C17.0508 4.60006 16.6457 4.93756 16.5966 5.38756C16.5475 5.85006 16.879 6.26256 17.3209 6.31256Z" fill="#E7194E"/>
<path d="M19.1371 4.61254C19.4808 4.65004 19.7877 4.40004 19.8245 4.05004C19.8614 3.70004 19.6158 3.38754 19.2721 3.35004C18.9284 3.31254 18.6215 3.56254 18.5847 3.91254C18.5601 4.26254 18.8057 4.57504 19.1371 4.61254Z" fill="#E7194E"/>
<path d="M20.7821 3.70005C20.9294 3.71255 21.0645 3.60005 21.089 3.45005C21.1013 3.30005 20.9908 3.16255 20.8435 3.13755C20.6962 3.12505 20.5612 3.23755 20.5366 3.38755C20.5121 3.55005 20.6225 3.68755 20.7821 3.70005Z" fill="#E7194E"/>
<path d="M18.7197 6.46254C18.5847 6.90004 18.8302 7.37504 19.2599 7.51254C19.6895 7.65004 20.156 7.40004 20.291 6.96254C20.426 6.52504 20.1805 6.05004 19.7509 5.91254C19.309 5.77504 18.8548 6.01254 18.7197 6.46254Z" fill="#E7194E"/>
<path d="M21.5683 6.56246C21.8997 6.66246 22.2434 6.48746 22.3416 6.14996C22.4398 5.81246 22.268 5.46246 21.9365 5.36246C21.6051 5.26246 21.2614 5.43746 21.1632 5.77496C21.065 6.09996 21.2491 6.46246 21.5683 6.56246Z" fill="#E7194E"/>
<path d="M23.1882 6.05004C23.3355 6.10004 23.4829 6.01254 23.532 5.86254C23.5811 5.71254 23.4951 5.56254 23.3478 5.51254C23.2005 5.46254 23.0532 5.55004 23.0041 5.70004C22.955 5.85004 23.0409 6.00004 23.1882 6.05004Z" fill="#E7194E"/>
<path d="M15.4303 5.22499C15.8722 5.12499 16.1545 4.67499 16.0563 4.22499C15.9581 3.77499 15.5162 3.48749 15.0743 3.58749C14.6324 3.68749 14.35 4.13749 14.4482 4.58749C14.5587 5.03749 14.9883 5.32499 15.4303 5.22499Z" fill="#E7194E"/>
<path d="M16.7435 3.37494C17.0749 3.29994 17.2836 2.96244 17.21 2.62494C17.1363 2.28744 16.8049 2.07494 16.4734 2.14994C16.142 2.22494 15.9333 2.56244 16.007 2.89994C16.0806 3.23744 16.4121 3.44994 16.7435 3.37494Z" fill="#E7194E"/>
<path d="M17.8851 2.10002C18.0324 2.06252 18.1306 1.91252 18.0938 1.76252C18.057 1.61252 17.9097 1.51252 17.7623 1.55002C17.615 1.58752 17.5168 1.73752 17.5537 1.88752C17.5905 2.03752 17.7378 2.13752 17.8851 2.10002Z" fill="#E7194E"/>
<path d="M15.1484 19.1875C16.0162 19.1875 16.7197 18.4712 16.7197 17.5875C16.7197 16.7039 16.0162 15.9875 15.1484 15.9875C14.2806 15.9875 13.5771 16.7039 13.5771 17.5875C13.5771 18.4712 14.2806 19.1875 15.1484 19.1875Z" fill="#E7194E"/>
<path d="M94.08 24.2875C95.2325 24.2875 96.1668 23.3361 96.1668 22.1625C96.1668 20.9889 95.2325 20.0375 94.08 20.0375C92.9275 20.0375 91.9932 20.9889 91.9932 22.1625C91.9932 23.3361 92.9275 24.2875 94.08 24.2875Z" fill="#242745"/>
</g>
<defs>
<clipPath id="clip0_278_10596">
<rect width="121" height="27" fill="white" transform="translate(0 0.5)"/>
</clipPath>
</defs>
</svg>
