<svg width="35" height="36" viewBox="0 0 35 36" xmlns="http://www.w3.org/2000/svg" fill="currentColor" >
<g id="Lightbulb">
<path id="Union" fill-rule="evenodd" clip-rule="evenodd" d="M23.1207 6.52076C21.3996 5.34023 19.3505 4.73153 17.2641 4.78099L17.2634 4.78101C17.0201 4.78661 16.7789 4.80112 16.5401 4.82422L17.2173 2.78154C19.7235 2.72227 22.1847 3.45347 24.252 4.87146C26.3194 6.28958 27.8879 8.32262 28.735 10.6823C29.5821 13.0419 29.6648 15.6083 28.9713 18.0176C28.2779 20.4269 26.8435 22.5567 24.8716 24.1049L24.8656 24.1096L24.8656 24.1096C24.5871 24.3248 24.3615 24.6009 24.2061 24.9167C24.0508 25.2322 23.9697 25.5791 23.9689 25.9307L23.9689 25.9316L23.9689 26.75C23.9689 27.3053 23.7483 27.8379 23.3556 28.2305C22.963 28.6232 22.4304 28.8438 21.8751 28.8438H13.1251C12.5698 28.8438 12.0373 28.6232 11.6446 28.2305C11.252 27.8379 11.0314 27.3053 11.0314 26.75V25.9334C11.0285 25.5839 10.9473 25.2395 10.7936 24.9256C10.6399 24.6115 10.4177 24.336 10.1433 24.1193L10.8199 22.0785C10.9985 22.2396 11.1832 22.3945 11.3737 22.5426L10.7599 23.332L11.3787 22.5465C11.8899 22.9492 12.3039 23.4618 12.5899 24.0463C12.876 24.6308 13.0269 25.2721 13.0313 25.9229L13.0314 25.9297L13.0314 26.75C13.0314 26.7749 13.0412 26.7987 13.0588 26.8163C13.0764 26.8339 13.1003 26.8438 13.1251 26.8438H21.8751C21.9 26.8438 21.9238 26.8339 21.9414 26.8163C21.959 26.7987 21.9689 26.7749 21.9689 26.75V25.9297L21.9689 25.9278C21.9701 25.2709 22.1216 24.623 22.4117 24.0336C22.7011 23.4454 23.121 22.9311 23.6392 22.5297C25.2793 21.241 26.4724 19.4689 27.0494 17.4644C27.6266 15.4588 27.5578 13.3223 26.8526 11.358C26.1475 9.39371 24.8417 7.70128 23.1207 6.52076ZM10.8198 22.0784L10.8199 22.0785L16.5401 4.82422L16.5395 4.82428L17.2167 2.78155C10.7352 2.93125 5.53315 8.31637 5.56262 14.7911C5.56862 16.592 5.98437 18.368 6.77838 19.9845C7.57198 21.6001 8.72264 23.014 10.1433 24.1193L10.8198 22.0784ZM10.8198 22.0784C9.89044 21.2397 9.12739 20.2303 8.57351 19.1027C7.91321 17.7584 7.56751 16.2815 7.56261 14.7839L7.56261 14.7825C7.53888 9.6344 11.4946 5.31264 16.5395 4.82428L10.8198 22.0784ZM11.0315 32.2188C11.0315 31.6665 11.4792 31.2188 12.0315 31.2188H22.969C23.5212 31.2188 23.969 31.6665 23.969 32.2188C23.969 32.7711 23.5212 33.2188 22.969 33.2188H12.0315C11.4792 33.2188 11.0315 32.7711 11.0315 32.2188ZM18.7748 7.27974C18.2303 7.18743 17.714 7.55402 17.6217 8.09854C17.5294 8.64305 17.896 9.1593 18.4405 9.25161C19.5732 9.44361 20.6183 9.98246 21.4317 10.7938C22.2451 11.6051 22.7866 12.6488 22.9815 13.781C23.0752 14.3253 23.5924 14.6906 24.1367 14.5969C24.6809 14.5032 25.0462 13.986 24.9525 13.4417C24.6874 11.9015 23.9507 10.4815 22.8441 9.37775C21.7376 8.27401 20.3157 7.54095 18.7748 7.27974Z" fill="currentColor"/>
</g>
</svg>
